<?xml version="1.0" standalone="no"?>
<!DOCTYPE svg PUBLIC "-//W3C//DTD SVG 20010904//EN"
 "http://www.w3.org/TR/2001/REC-SVG-20010904/DTD/svg10.dtd">
<svg version="1.0" xmlns="http://www.w3.org/2000/svg"
 width="512.000000pt" height="512.000000pt" viewBox="0 0 512.000000 512.000000"
 preserveAspectRatio="xMidYMid meet">
<metadata>
Created by potrace 1.11, written by Peter Selinger 2001-2013
</metadata>
<g transform="translate(0.000000,512.000000) scale(0.100000,-0.100000)"
fill="#000000" stroke="none">
<path d="M1819 5100 c-106 -33 -192 -108 -241 -209 -17 -36 -32 -67 -33 -68 0
-1 -30 -4 -66 -7 -225 -20 -412 -171 -476 -386 -15 -48 -17 -123 -18 -584 -1
-616 2 -660 51 -797 67 -185 210 -317 382 -354 27 -5 37 -15 48 -43 61 -153
159 -305 263 -407 l61 -59 0 -102 0 -102 -27 -7 c-32 -8 -66 -47 -195 -220
-52 -71 -58 -74 -193 -100 -71 -13 -141 -26 -155 -29 -65 -11 -353 -87 -401
-106 -130 -51 -268 -146 -360 -248 -54 -61 -128 -173 -158 -242 -13 -30 -28
-64 -32 -75 -35 -79 -51 -188 -56 -373 -6 -208 2 -283 40 -362 29 -59 99 -134
155 -165 104 -58 -32 -55 2146 -55 1340 0 2016 4 2046 11 74 17 132 50 190
109 60 59 96 124 110 198 14 75 10 390 -7 478 -61 326 -290 605 -593 724 -48
19 -293 84 -360 96 -14 3 -33 7 -42 10 -10 3 -30 7 -45 10 -16 2 -62 11 -103
19 -41 8 -88 17 -104 19 -16 3 -29 6 -31 8 -1 2 -52 78 -114 170 -93 140 -116
168 -141 173 -33 7 -33 6 -32 123 1 72 1 73 46 123 146 162 232 329 281 542
23 98 24 148 25 674 l1 472 37 11 c20 5 40 10 44 10 17 0 130 74 176 115 89
81 160 216 178 341 4 27 7 93 6 147 0 109 -9 128 -68 153 -30 13 -31 13 -31
93 l-1 80 41 23 c96 54 65 183 -44 183 -42 0 -86 -33 -91 -69 -3 -20 -9 -21
-125 -24 -120 -3 -123 -2 -123 19 0 11 -14 34 -31 50 l-31 29 -871 -1 c-803
-1 -876 -2 -928 -19z"/>
</g>
</svg>
